<svg width="258" height="258" viewBox="0 0 258 258" fill="none" xmlns="http://www.w3.org/2000/svg">
<circle cx="129" cy="129" r="129" fill="#DBDAEC"/>
<circle cx="129" cy="129" r="116" fill="#5A79C8"/>
<mask id="mask0_1_95" style="mask-type:alpha" maskUnits="userSpaceOnUse" x="13" y="13" width="232" height="232">
<circle cx="129" cy="129" r="116" fill="#5A79C8"/>
</mask>
<g mask="url(#mask0_1_95)">
<path d="M224.403 280.904C226.278 282.691 228.198 284.556 230.166 286.5V295L224.403 280.904C144.813 205.026 147.625 268.057 124.666 228C105.866 195.2 107.833 180.667 111.166 177.5V142.5L140.666 119C150.333 120.167 172.366 123.5 183.166 127.5C193.966 131.5 204.999 151.5 209.166 161C205.166 170.2 199.833 201.167 197.666 215.5L224.403 280.904Z" fill="#449D32"/>
<path d="M59.5 44H17.5L4 173L31 153L59.5 159.5L46 134.5C53 125.833 68.7 108.5 75.5 108.5C84 108.5 84.5 75 83 60.5C81.8 48.9 66.8333 44.6667 59.5 44Z" fill="#449D32"/>
<path d="M115 44L141 -33L235 37.5L226.5 108H185.5L157 92L141 67.5L127.5 92L104 75L115 44Z" fill="#449D32"/>
</g>
</svg>
