<svg width="232" height="232" viewBox="0 0 232 232" fill="none" xmlns="http://www.w3.org/2000/svg">
<circle cx="116" cy="116" r="116" fill="#5A79C8"/>
<mask id="mask0_1_95" style="mask-type:alpha" maskUnits="userSpaceOnUse" x="0" y="0" width="232" height="232">
<circle cx="116" cy="116" r="116" fill="#5A79C8"/>
</mask>
<g mask="url(#mask0_1_95)">
<path d="M211.403 267.904C213.278 269.691 215.198 271.556 217.166 273.5V282L211.403 267.904C131.813 192.026 134.625 255.057 111.666 215C92.866 182.2 94.8326 167.667 98.166 164.5V129.5L127.666 106C137.333 107.167 159.366 110.5 170.166 114.5C180.966 118.5 191.999 138.5 196.166 148C192.166 157.2 186.833 188.167 184.666 202.5L211.403 267.904Z" fill="#449D32"/>
<path d="M46.5 31H4.5L-9 160L18 140L46.5 146.5L33 121.5C40 112.833 55.7 95.5 62.5 95.5C71 95.5 71.5 62 70 47.5C68.8 35.9 53.8333 31.6667 46.5 31Z" fill="#449D32"/>
<path d="M102 31L128 -46L222 24.5L213.5 95H172.5L144 79L128 54.5L114.5 79L91 62L102 31Z" fill="#449D32"/>
</g>
</svg>
