<svg width="256" height="248" viewBox="0 0 256 248" fill="none" xmlns="http://www.w3.org/2000/svg">
<circle cx="122.5" cy="129.5" r="112.5" fill="#B0B0B7"/>
<ellipse cx="68.5473" cy="184.295" rx="55.1705" ry="42" transform="rotate(28.6194 68.5473 184.295)" fill="#B0B0B7"/>
<ellipse cx="161.547" cy="63.2946" rx="55.1705" ry="42" transform="rotate(28.6194 161.547 63.2946)" fill="#B0B0B7"/>
<ellipse cx="186.547" cy="141.295" rx="55.1705" ry="42" transform="rotate(28.6194 186.547 141.295)" fill="#B0B0B7"/>
<circle cx="152" cy="68" r="29" fill="#706F74"/>
<circle cx="62" cy="171" r="19" fill="#706F74"/>
<ellipse cx="82.5" cy="125" rx="20.5" ry="23" fill="#706F74"/>
<circle cx="180.5" cy="125.5" r="22.5" fill="#706F74"/>
<circle cx="45.5" cy="158.5" r="10.5" fill="#706F74"/>
<circle cx="128.5" cy="52.5" r="10.5" fill="#706F74"/>
<path fill-rule="evenodd" clip-rule="evenodd" d="M96.5445 20.0089C89.4585 57.263 57.3217 85.6408 18.324 86.9526C31.9182 53.702 60.9688 28.4104 96.5445 20.0089Z" fill="#706F74"/>
<path fill-rule="evenodd" clip-rule="evenodd" d="M81 28C76.4704 49.147 55.9281 65.2554 31 66C39.6897 47.1256 58.2593 32.769 81 28Z" fill="#706F74"/>
<path fill-rule="evenodd" clip-rule="evenodd" d="M165 231.841C175.511 206.123 196.261 189.946 215.099 193.989C202.253 216.016 183.564 230.38 165 231.841Z" fill="#706F74"/>
<circle cx="189.5" cy="150.5" r="20.5" fill="#706F74"/>
<circle cx="112.5" cy="86.5" r="39.5" fill="#706F74"/>
</svg>
