<svg width="262" height="259" viewBox="0 0 262 259" fill="none" xmlns="http://www.w3.org/2000/svg">
<circle cx="129" cy="130" r="129" fill="#DBDAEC"/>
<circle cx="128.5" cy="129.5" r="112.5" fill="#B0B0B7"/>
<ellipse cx="74.5473" cy="184.295" rx="55.1705" ry="42" transform="rotate(28.6194 74.5473 184.295)" fill="#B0B0B7"/>
<ellipse cx="167.547" cy="63.2946" rx="55.1705" ry="42" transform="rotate(28.6194 167.547 63.2946)" fill="#B0B0B7"/>
<ellipse cx="192.547" cy="141.295" rx="55.1705" ry="42" transform="rotate(28.6194 192.547 141.295)" fill="#B0B0B7"/>
<circle cx="158" cy="68" r="29" fill="#706F74"/>
<circle cx="68" cy="171" r="19" fill="#706F74"/>
<ellipse cx="88.5" cy="125" rx="20.5" ry="23" fill="#706F74"/>
<circle cx="186.5" cy="125.5" r="22.5" fill="#706F74"/>
<circle cx="51.5" cy="158.5" r="10.5" fill="#706F74"/>
<circle cx="134.5" cy="52.5" r="10.5" fill="#706F74"/>
<path fill-rule="evenodd" clip-rule="evenodd" d="M102.545 20.0089C95.4585 57.263 63.3217 85.6408 24.324 86.9526C37.9182 53.702 66.9688 28.4104 102.545 20.0089Z" fill="#706F74"/>
<path fill-rule="evenodd" clip-rule="evenodd" d="M87 28C82.4704 49.147 61.9281 65.2554 37 66C45.6897 47.1256 64.2593 32.769 87 28Z" fill="#706F74"/>
<path fill-rule="evenodd" clip-rule="evenodd" d="M171 231.841C181.511 206.123 202.261 189.946 221.099 193.989C208.253 216.016 189.564 230.38 171 231.841Z" fill="#706F74"/>
<circle cx="195.5" cy="150.5" r="20.5" fill="#706F74"/>
<circle cx="118.5" cy="86.5" r="39.5" fill="#706F74"/>
</svg>
